<svg xmlns="http://www.w3.org/2000/svg" xmlns:xlink="http://www.w3.org/1999/xlink" viewBox="0 0 305.8 322.01"><defs><style>.cls-1{fill:none;}.cls-2{clip-path:url(#clip-path);}</style><clipPath id="clip-path" transform="translate(0 0)"><rect class="cls-1" width="305.8" height="322.01"/></clipPath></defs><g id="Слой_2" data-name="Слой 2"><g id="Слой_1-2" data-name="Слой 1"><g class="cls-2"><path fill="#fff" d="M304.18,2.51a7,7,0,0,0-7.6-2.15L31.12,89.12A7,7,0,0,0,29,101.26l67.93,53.38v50.12a7,7,0,0,0,11.3,5.52L138.14,187l42.61,33.49a7,7,0,0,0,10.47-2.15L305,10.34a7,7,0,0,0-.78-7.83Zm-45,25.13-155.1,114.8L47.87,98.28ZM110.94,190.44v-24.8l15.85,12.46Zm72,13.94-67.42-53L277.4,31.55Z" transform="translate(0 0)"/><path fill="#fff" d="M14,291.14a7,7,0,0,0-8.8,4.54c-1.78,5.58-3.45,11.52-5,17.66a7,7,0,0,0,13.6,3.33c1.44-5.83,3-11.45,4.7-16.73A7,7,0,0,0,14,291.15Z" transform="translate(0 0)"/><path fill="#fff" d="M83.42,224.58A40.59,40.59,0,0,0,56.57,226,71.63,71.63,0,0,1,68.5,199.8a7,7,0,0,0-11-8.66c-.8,1-15.76,20.3-16,43.74A100.35,100.35,0,0,0,16.22,268.2a7,7,0,1,0,12.5,6.32,96.56,96.56,0,0,1,15.4-22.8c.31.93.65,1.86,1,2.8A34.32,34.32,0,0,0,80.4,277.15a26.72,26.72,0,0,0,23.54-24.32c1.64-12.4-6.8-24-20.52-28.25M90.06,251a12.94,12.94,0,0,1-11.41,12.26,20.3,20.3,0,0,1-20.5-13.94,35.4,35.4,0,0,1-2.07-7.42,29,29,0,0,1,23.22-4c7.06,2.2,11.49,7.57,10.76,13.06" transform="translate(0 0)"/></g></g></g></svg>