<?xml version="1.0" encoding="utf-8"?>
<!-- Generator: Adobe Illustrator 25.0.0, SVG Export Plug-In . SVG Version: 6.00 Build 0)  -->
<svg version="1.1" id="Слой_2" xmlns="http://www.w3.org/2000/svg" xmlns:xlink="http://www.w3.org/1999/xlink" x="0px" y="0px"
	 viewBox="0 0 13 15" style="enable-background:new 0 0 13 15;" xml:space="preserve">
<style type="text/css">
	.st0{fill:#7A7A7A;}
</style>
<g>
	<g>
		<path class="st0" d="M12,3v3H9H8H5H4H1V3h3h1h3h1H12 M13,2H9H8H5H4H0v5h4h1h3h1h4V2L13,2z"/>
	</g>
	<g>
		<path class="st0" d="M4,7v3H1V7H4 M5,6H0v5h5V6L5,6z"/>
	</g>
	<g>
		<path class="st0" d="M8,7v3H5V7H8 M9,6H4v5h5V6L9,6z"/>
	</g>
	<g>
		<path class="st0" d="M12,7v3H9V7H12 M13,6H8v5h5V6L13,6z"/>
	</g>
	<g>
		<path class="st0" d="M11,1v1H9V1H11 M12,0H8v3h4V0L12,0z"/>
	</g>
	<g>
		<path class="st0" d="M4,1v1H2V1H4 M5,0H1v3h4V0L5,0z"/>
	</g>
	<g>
		<path class="st0" d="M4,11v3H1v-3H4 M5,10H0v5h5V10L5,10z"/>
	</g>
	<g>
		<path class="st0" d="M8,11v3H5v-3H8 M9,10H4v5h5V10L9,10z"/>
	</g>
	<g>
		<path class="st0" d="M12,11v3H9v-3H12 M13,10H8v5h5V10L13,10z"/>
	</g>
</g>
</svg>
