<svg xmlns="http://www.w3.org/2000/svg" xmlns:xlink="http://www.w3.org/1999/xlink" viewBox="0 0 512 512"><defs><style>.cls-1{fill:none;}.cls-2{clip-path:url(#clip-path);}.cls-3{fill:#282828;}.cls-4{fill:#ff8d11;}</style><clipPath id="clip-path"><rect class="cls-1" width="512" height="512"/></clipPath></defs><g id="Слой_2" data-name="Слой 2"><g id="Слой_1-2" data-name="Слой 1"><g class="cls-2"><path class="cls-3" d="M256,0C397.38,0,512,114.62,512,256S397.38,512,256,512,0,397.39,0,256,114.62,0,256,0"/><path class="cls-4" d="M442.27,405.7a94.94,94.94,0,0,0-39.42-18.21l-70.18-14.08A15.83,15.83,0,0,1,320,357.73v-16.1c4.51-6.33,8.77-14.75,13.22-23.55,3.45-6.82,8.67-17.09,11.26-19.74,14.21-14.28,27.94-30.31,32.19-51,4-19.39.07-29.57-4.51-37.76,0-20.45-.64-46-5.47-64.67-.58-25.22-5.15-39.39-16.67-51.81-8.13-8.8-20.1-10.85-29.73-12.48-3.78-.64-9-1.54-10.91-2.56a112.87,112.87,0,0,0-54-14.08c-42.15,1.73-94,28.54-111.3,76.35-5.37,14.56-4.83,38.47-4.38,57.67l-.42,11.55c-4.13,8.06-8.19,18.3-4.19,37.76,4.22,20.7,18,36.77,32.42,51.23,2.36,2.43,7.71,12.8,11.23,19.65,4.51,8.77,8.8,17.15,13.31,23.45v16.1a15.9,15.9,0,0,1-12.74,15.68L109,387.52A95.16,95.16,0,0,0,69.73,405.7,16,16,0,0,0,67.84,429,254.24,254.24,0,0,0,256,512c71.78,0,140.38-30.24,188.16-83a16,16,0,0,0-1.89-23.29"/></g></g></g></svg>