<svg xmlns="http://www.w3.org/2000/svg" xmlns:xlink="http://www.w3.org/1999/xlink" viewBox="0 0 512.03 512.07"><defs><style>.cls-1{fill:none;}.cls-2{clip-path:url(#clip-path);}.cls-3{fill:#fbbb00;}.cls-4{fill:#518ef8;}.cls-5{fill:#28b446;}.cls-6{fill:#f14336;}</style><clipPath id="clip-path" transform="translate(0 0)"><rect class="cls-1" width="512.03" height="512.07"/></clipPath></defs><g id="Слой_2" data-name="Слой 2"><g id="Слой_1-2" data-name="Слой 1"><g class="cls-2"><path class="cls-3" d="M113.46,309.5,95.64,376,30.5,377.41a256.44,256.44,0,0,1-1.89-239l58,10.63L112,206.63a152.81,152.81,0,0,0,1.44,102.87Z" transform="translate(0 0)"/><path class="cls-4" d="M507.52,208.27a256,256,0,0,1-91.26,247.46l-73-3.72-10.34-64.54a152.57,152.57,0,0,0,65.65-77.91H261.62V208.27Z" transform="translate(0 0)"/><path class="cls-5" d="M416.24,455.71h0c-110.32,88.52-271.5,70.85-360-39.46A256.28,256.28,0,0,1,30.5,377.41l83-67.91a152.26,152.26,0,0,0,219.4,77.95Z" transform="translate(0 0)"/><path class="cls-6" d="M419.39,59l-82.93,67.89A152.22,152.22,0,0,0,112,206.63l-83.4-68.27c65-125.56,219.47-174.65,345-109.65A256.21,256.21,0,0,1,419.39,59" transform="translate(0 0)"/></g></g></g></svg>