<svg xmlns="http://www.w3.org/2000/svg" viewBox="0 0 343.85 35.2"><defs><style>.cls-1{fill:#ff8d11;}.cls-2{fill:#fff;}</style></defs><g id="Слой_2" data-name="Слой 2"><g id="Слой_3" data-name="Слой 3"><path class="cls-1" d="M41.9,34.6h-7a1,1,0,0,1-1.1-1.1V1.7a1.14,1.14,0,0,1,.3-.8,1.14,1.14,0,0,1,.8-.3h7a1.14,1.14,0,0,1,.8.3,1.14,1.14,0,0,1,.3.8V33.5a1.14,1.14,0,0,1-.3.8A1.33,1.33,0,0,1,41.9,34.6Z"/><path class="cls-1" d="M65.6,35.2a18.22,18.22,0,0,1-7-1.4A17.26,17.26,0,0,1,52.9,30,18.74,18.74,0,0,1,49,24.4a17.21,17.21,0,0,1,0-13.6,16.65,16.65,0,0,1,3.9-5.6,17.26,17.26,0,0,1,5.7-3.8,18.22,18.22,0,0,1,7-1.4,18,18,0,0,1,8.9,2.1,17.21,17.21,0,0,1,6.2,5.8c.2.2.2.5.1.9s-.2.6-.5.7L74.7,13a1.08,1.08,0,0,1-.8.2,1.23,1.23,0,0,1-.8-.4A12,12,0,0,0,69.9,10a8.32,8.32,0,0,0-4.3-1.1,7.25,7.25,0,0,0-3.3.7,10.15,10.15,0,0,0-2.7,1.9,7.5,7.5,0,0,0-1.8,2.8,7.84,7.84,0,0,0-.7,3.3,7.25,7.25,0,0,0,.7,3.3,9,9,0,0,0,1.8,2.8,10.15,10.15,0,0,0,2.7,1.9,7.25,7.25,0,0,0,3.3.7,8.75,8.75,0,0,0,3.5-.7,5.14,5.14,0,0,0,2.7-2.1.48.48,0,0,0,0-.7c-.1-.2-.3-.3-.7-.3H65.8a1,1,0,0,1-1.1-1.1V15.9a1,1,0,0,1,1.1-1.1h16a1.14,1.14,0,0,1,.8.3,1.23,1.23,0,0,1,.4.8,10.89,10.89,0,0,1,.1,1.9,17.7,17.7,0,0,1-.1,2.3,16,16,0,0,1-1.8,6,17.45,17.45,0,0,1-3.8,4.7A18.1,18.1,0,0,1,72,33.9,15.6,15.6,0,0,1,65.6,35.2Z"/><path class="cls-2" d="M126.3,1.7V33.5a1,1,0,0,1-1.1,1.1h-7a1,1,0,0,1-1.1-1.1v-15c0-.3-.1-.5-.4-.5a.91.91,0,0,0-.7.3l-7.8,12.6a1,1,0,0,1-.7.4.91.91,0,0,1-.8-.4L98.9,18.3c-.2-.2-.4-.4-.7-.3s-.4.2-.4.5v15a1,1,0,0,1-1.1,1.1h-7a1,1,0,0,1-1.1-1.1V1.7a1.14,1.14,0,0,1,.3-.8,1.14,1.14,0,0,1,.8-.3h6.5a2.24,2.24,0,0,1,1,.3,1.58,1.58,0,0,1,.7.7l9,13.1a1,1,0,0,0,.7.4.62.62,0,0,0,.6-.4l8.9-13.1a2.85,2.85,0,0,1,.8-.7,1.93,1.93,0,0,1,1-.3h6.5a1.14,1.14,0,0,1,.8.3C126.2,1.1,126.3,1.4,126.3,1.7Z"/><path class="cls-2" d="M150.7,20.8c-.3-.8-.7-1.7-1.1-2.7s-.8-2-1.2-2.9c-.1-.3-.3-.4-.4-.4s-.3.1-.4.4l-2.3,5.6-3.7,10-1.3,2.8a1.34,1.34,0,0,1-.6.7,1.61,1.61,0,0,1-.9.3h-8a.9.9,0,0,1-.5-.1,1.38,1.38,0,0,1-.4-.3.76.76,0,0,1-.2-.5,2,2,0,0,1,.1-.7L143.3,1.5a1.34,1.34,0,0,1,.6-.7,1.69,1.69,0,0,1,1-.3h6.5a1.61,1.61,0,0,1,.9.3,1.34,1.34,0,0,1,.6.7l13.6,31.6a1,1,0,0,1-.1.9,1.1,1.1,0,0,1-1,.5h-8a1.93,1.93,0,0,1-1-.3,2.34,2.34,0,0,1-.7-.7l-1.3-2.8Z"/><path class="cls-2" d="M201.6,1.7V33.5a1,1,0,0,1-1.1,1.1h-6.9a2.24,2.24,0,0,1-1-.3,2.7,2.7,0,0,1-.8-.7l-12.1-17a.86.86,0,0,0-.6-.3c-.2,0-.3.2-.3.5V33.4a1,1,0,0,1-1.1,1.1h-7a1,1,0,0,1-1.1-1.1V1.7a1.14,1.14,0,0,1,.3-.8,1.14,1.14,0,0,1,.8-.3h7a2.24,2.24,0,0,1,1,.3,5.55,5.55,0,0,1,.8.6l12.1,17.1c.2.2.4.4.6.3s.3-.2.3-.5V1.7a1.14,1.14,0,0,1,.3-.8,1.14,1.14,0,0,1,.8-.3h6.9a1.14,1.14,0,0,1,.8.3A1.14,1.14,0,0,1,201.6,1.7Z"/><path class="cls-2" d="M259.3,35.2a18.22,18.22,0,0,1-7-1.4,17.26,17.26,0,0,1-5.7-3.8,18.74,18.74,0,0,1-3.9-5.6,17.21,17.21,0,0,1,0-13.6,16.65,16.65,0,0,1,3.9-5.6,17.26,17.26,0,0,1,5.7-3.8,18.22,18.22,0,0,1,7-1.4,18,18,0,0,1,8.9,2.1,17.21,17.21,0,0,1,6.2,5.8c.2.2.2.5.1.9s-.2.6-.5.7l-5.6,3.6a1.08,1.08,0,0,1-.8.2,1.23,1.23,0,0,1-.8-.4,12,12,0,0,0-3.2-2.8A8.32,8.32,0,0,0,259.3,9a7.25,7.25,0,0,0-3.3.7,10.15,10.15,0,0,0-2.7,1.9,7.5,7.5,0,0,0-1.8,2.8,7.84,7.84,0,0,0-.7,3.3,7.25,7.25,0,0,0,.7,3.3,9,9,0,0,0,1.8,2.8,10.15,10.15,0,0,0,2.7,1.9,7.25,7.25,0,0,0,3.3.7,8.75,8.75,0,0,0,3.5-.7,5.14,5.14,0,0,0,2.7-2.1.48.48,0,0,0,0-.7c-.1-.2-.3-.3-.7-.3h-5.3a1,1,0,0,1-1.1-1.1V16a1,1,0,0,1,1.1-1.1h16a1.14,1.14,0,0,1,.8.3,1.23,1.23,0,0,1,.4.8,10.89,10.89,0,0,1,.1,1.9,17.7,17.7,0,0,1-.1,2.3,15.94,15.94,0,0,1-5.6,10.7,18.1,18.1,0,0,1-5.4,3.1A17.32,17.32,0,0,1,259.3,35.2Z"/><path class="cls-2" d="M291.2,10.2v2a1,1,0,0,0,1.1,1.1h12.6a1,1,0,0,1,1.1,1.1v6.4a1,1,0,0,1-1.1,1.1H292.3a1,1,0,0,0-1.1,1.1v1.8a1,1,0,0,0,1.1,1.1h14.5a1,1,0,0,1,1.1,1.1v6.4a1,1,0,0,1-1.1,1.1H283.1a1,1,0,0,1-1.1-1.1V1.7a1.14,1.14,0,0,1,.3-.8,1.14,1.14,0,0,1,.8-.3h23.7a1.14,1.14,0,0,1,.8.3,1.14,1.14,0,0,1,.3.8V8a1,1,0,0,1-1.1,1.1H292.3a1.14,1.14,0,0,0-.8.3A1.33,1.33,0,0,0,291.2,10.2Z"/><path class="cls-2" d="M226.1,20.8c-.3-.8-.7-1.7-1.1-2.7s-.8-2-1.2-2.9c-.1-.3-.3-.4-.4-.4s-.3.1-.4.4l-2.3,5.6-3.7,10-1.3,2.8a1.34,1.34,0,0,1-.6.7,1.61,1.61,0,0,1-.9.3h-8a.9.9,0,0,1-.5-.1,1.38,1.38,0,0,1-.4-.3.76.76,0,0,1-.2-.5,2,2,0,0,1,.1-.7L218.7,1.5a1.34,1.34,0,0,1,.6-.7,1.69,1.69,0,0,1,1-.3h6.5a1.61,1.61,0,0,1,.9.3,1.34,1.34,0,0,1,.6.7l13.6,31.6a1,1,0,0,1-.1.9,1.1,1.1,0,0,1-1,.5h-8a1.93,1.93,0,0,1-1-.3,2.34,2.34,0,0,1-.7-.7l-1.3-2.8Z"/><path class="cls-1" d="M29.8,33.3c-1-1.4-2.2-2.9-3.5-4.5s-2.5-3.2-3.7-4.8a1.08,1.08,0,0,1-.2-.8,1.16,1.16,0,0,1,.5-.7,10.61,10.61,0,0,0,2-1.7,11.35,11.35,0,0,0,1.5-2.3,13.32,13.32,0,0,0,1-2.8,15.26,15.26,0,0,0,.3-3,13,13,0,0,0-.9-4.9,11.35,11.35,0,0,0-2.5-3.9,11.35,11.35,0,0,0-3.9-2.5,13.48,13.48,0,0,0-5-.9H1.1A1.14,1.14,0,0,0,.3.8a1.14,1.14,0,0,0-.3.8V7.7H14.2a4.8,4.8,0,1,1,0,9.6H0v16a1.14,1.14,0,0,0,.3.8,1.14,1.14,0,0,0,.8.3h7a1,1,0,0,0,1.1-1.1V25.8a1,1,0,0,1,1.1-1.1h1a2.24,2.24,0,0,1,1,.3,5.55,5.55,0,0,1,.8.6c1,1.4,1.9,2.7,2.9,4s2,2.7,2.9,4a2.41,2.41,0,0,0,.8.6,2.24,2.24,0,0,0,1,.3h8.6a.55.55,0,0,0,.6-.4A.8.8,0,0,0,29.8,33.3Z"/><path class="cls-2" d="M343.7,33.3c-1-1.4-2.2-2.9-3.5-4.5s-2.5-3.2-3.7-4.8a1.08,1.08,0,0,1-.2-.8,1.16,1.16,0,0,1,.5-.7,10.61,10.61,0,0,0,2-1.7,11.35,11.35,0,0,0,1.5-2.3,13.32,13.32,0,0,0,1-2.8,15.26,15.26,0,0,0,.3-3,13,13,0,0,0-.9-4.9,11.35,11.35,0,0,0-2.5-3.9,11.35,11.35,0,0,0-3.9-2.5,13.48,13.48,0,0,0-5-.9H314.8a1.14,1.14,0,0,0-.8.3,1.14,1.14,0,0,0-.3.8V7.8h16.2a4.8,4.8,0,1,1,0,9.6H313.7v16a1,1,0,0,0,1.1,1.1h7a1,1,0,0,0,1.1-1.1V25.9a1,1,0,0,1,1.1-1.1h1a2.24,2.24,0,0,1,1,.3,5.55,5.55,0,0,1,.8.6c1,1.4,1.9,2.7,2.9,4s2,2.7,2.9,4a2.41,2.41,0,0,0,.8.6,2.24,2.24,0,0,0,1,.3h8.7a.55.55,0,0,0,.6-.4A.75.75,0,0,0,343.7,33.3Z"/></g></g></svg>