<svg xmlns="http://www.w3.org/2000/svg" viewBox="0 0 288.4 137.5"><defs><style>.cls-1{fill:#fff;}.cls-2{fill:#ff8d11;}</style></defs><g id="Слой_2" data-name="Слой 2"><g id="Слой_3" data-name="Слой 3"><path class="cls-1" d="M288.4,4.6V132.9a4.44,4.44,0,0,1-4.5,4.5H255.7a4.38,4.38,0,0,1-3.2-1.3,4.22,4.22,0,0,1-1.3-3.2V72.4a1.92,1.92,0,0,0-1.7-2.1,2.94,2.94,0,0,0-2.8,1.3l-31.6,50.9a3.22,3.22,0,0,1-3,1.5,3.68,3.68,0,0,1-3.2-1.5L177.3,71.6a2.56,2.56,0,0,0-2.6-1.3c-1.1.1-1.7.8-1.7,2.1v60.5a4.44,4.44,0,0,1-4.5,4.5H140.3a4.38,4.38,0,0,1-3.2-1.3,4.22,4.22,0,0,1-1.3-3.2V4.6a4.38,4.38,0,0,1,1.3-3.2A4.22,4.22,0,0,1,140.3.1h26.2a8.56,8.56,0,0,1,3.9,1.1,7.1,7.1,0,0,1,3,2.6l36.2,53a3.27,3.27,0,0,0,2.6,1.5,2.71,2.71,0,0,0,2.4-1.5l36.2-53A8.5,8.5,0,0,1,254,1.2,8.91,8.91,0,0,1,257.9.1h26.2a4.38,4.38,0,0,1,3.2,1.3A5.17,5.17,0,0,1,288.4,4.6Z"/><path class="cls-2" d="M120.6,132.4c-4.1-5.5-8.8-11.6-14.1-18.2s-10.3-13.1-15-19.4a3.28,3.28,0,0,1-.7-3.1,4.85,4.85,0,0,1,2-2.7,35.79,35.79,0,0,0,8.1-7,48.62,48.62,0,0,0,6.2-9.5,46.6,46.6,0,0,0,4-11.2,53,53,0,0,0,1.4-11.9,51.12,51.12,0,0,0-3.7-19.9A47.17,47.17,0,0,0,98.7,13.9,44.45,44.45,0,0,0,83,3.7,54.46,54.46,0,0,0,62.9,0H4.5A4.22,4.22,0,0,0,1.3,1.3,4.22,4.22,0,0,0,0,4.5V30.4H57A18.8,18.8,0,0,1,57,68H0v65a4.22,4.22,0,0,0,1.3,3.2,4.38,4.38,0,0,0,3.2,1.3H32.6a4.44,4.44,0,0,0,4.5-4.5V102.6a4.44,4.44,0,0,1,4.5-4.5h4.2a8.37,8.37,0,0,1,3.9,1,9.16,9.16,0,0,1,3.2,2.5c3.9,5.5,7.8,11,11.7,16.3s7.9,10.7,11.9,16a7.82,7.82,0,0,0,3.3,2.5,9.07,9.07,0,0,0,4,1h34.9a2.22,2.22,0,0,0,2.4-1.8A3.38,3.38,0,0,0,120.6,132.4Z"/></g></g></svg>