<svg xmlns="http://www.w3.org/2000/svg" xmlns:xlink="http://www.w3.org/1999/xlink" viewBox="0 0 609.38 495.34"><defs><style>.cls-1{fill:none;}.cls-2{clip-path:url(#clip-path);}</style><clipPath id="clip-path" transform="translate(0 0)"><rect class="cls-1" width="609.38" height="495.34"/></clipPath></defs><g id="Слой_2" data-name="Слой 2"><g id="Слой_1-2" data-name="Слой 1"><g class="cls-2"><path fill="#fff" d="M408.55,142.11h.14l97.13-1.46a8.73,8.73,0,0,0-.26-17.45l-97.13,1.46a8.73,8.73,0,1,0,.12,17.45" transform="translate(0 0)"/><path fill="#fff" d="M455.61,182.3h-.14L409.3,183a8.73,8.73,0,1,0,.12,17.45h.13l46.18-.69a8.73,8.73,0,1,0-.12-17.45" transform="translate(0 0)"/><path fill="#fff" d="M15.14,476.34a8.43,8.43,0,0,0,1.28,1,58.38,58.38,0,0,0,42.15,18h349a58.4,58.4,0,0,0,42.12-17.93,8.59,8.59,0,0,0,2.92-3.24,58.22,58.22,0,0,0,13.54-37.41V303.85a151.69,151.69,0,0,0,43.95-9.22l81.14,12.94a8.73,8.73,0,0,0,9.35-12.15L578,244.5a152,152,0,1,0-272.47-99.92h-247A58.64,58.64,0,0,0,.5,195.67a8.7,8.7,0,0,0-.4,4.14C0,200.92,0,202,0,203.15V436.76a58.27,58.27,0,0,0,13.52,37.39,8.7,8.7,0,0,0,1.62,2.19m43.43,1.55a40.93,40.93,0,0,1-24.67-8.25L139.15,362a8.73,8.73,0,1,0-12.48-12.2L22.45,456.4a41,41,0,0,1-5-19.64V217.36l181.05,153.3a53.42,53.42,0,0,0,69.3,0l106.14-90a8.55,8.55,0,0,0,.7-.65l.18-.19a150.61,150.61,0,0,0,73.87,24.09v132.9a40.85,40.85,0,0,1-5,19.7L338.79,349.77A8.72,8.72,0,1,0,326.35,362L432.18,469.69a40.94,40.94,0,0,1-24.63,8.2ZM360.81,58.3A134.55,134.55,0,0,1,561.17,237.65a8.71,8.71,0,0,0-1.24,9.09l18.19,41.07L510.54,277a8.74,8.74,0,0,0-4.53.48,134.36,134.36,0,0,1-126.92-16c-.21-.16-.42-.32-.63-.46A134.76,134.76,0,0,1,360.81,58.3M58.57,162H305.68a151,151,0,0,0,45.83,99.14q4.33,4.2,8.93,8L256.51,357.33a36,36,0,0,1-46.74,0L18.23,195.17A41.21,41.21,0,0,1,58.57,162" transform="translate(0 0)"/></g></g></g></svg>