<svg width="300" height="176" xmlns="http://www.w3.org/2000/svg">
 <!-- Created with Method Draw - http://github.com/duopixel/Method-Draw/ -->

 <g>
  <title>background</title>
  <rect fill="#fff" id="canvas_background" height="178" width="302" y="-1" x="-1"/>
  <g display="none" overflow="visible" y="0" x="0" height="100%" width="100%" id="canvasGrid">
   <rect fill="url(#gridpattern)" stroke-width="0" y="0" x="0" height="100%" width="100%"/>
  </g>
 </g>
 <g>
  <title>Layer 1</title>
  <!-- Created with Method Draw - http://github.com/duopixel/Method-Draw/ -->
  <g stroke="null" id="svg_38">
   <g stroke="null" transform="matrix(0.367185 0 0 0.382791 -338.051 -514.154)" id="svg_35">
    <title stroke="null">background</title>
    <rect stroke="null" x="933.16113" y="1388.13797" width="784" height="360" id="svg_33" fill="#ffffff"/>
    <g stroke="null" id="svg_32" display="none">
     <rect stroke="null" id="svg_36" width="300" height="176" x="934.16113" y="1389.13797" stroke-width="0" fill="url(#gridpattern)"/>
    </g>
   </g>
   <g stroke="null" transform="matrix(0.367185 0 0 0.382791 -338.051 -514.154)" id="svg_37">
    <title stroke="null">Layer 1</title>
    <g stroke="null" id="svg_23">
     <g stroke="null" id="svg_24" transform="matrix(0.402415 0 0 0.402415 0 0)">
      <path stroke="null" d="m2847.49585,3862.5835c0,-0.00098 -20.69629,-6.26221 -35.90405,-10.8623c-2.3374,-18.90771 -7.26123,-37.01367 -14.41797,-53.94775l25.63379,-27.32715c4.40454,-4.69775 5.43213,-11.89404 2.04639,-17.75781c-3.38501,-5.86426 -10.13232,-8.57227 -16.40088,-7.10596c0,-0.00098 -21.06836,4.92773 -36.53955,8.54785c-11.28418,-14.88818 -24.5708,-28.17383 -39.45874,-39.45898l8.54883,-36.53906c1.46533,-6.27002 -1.24243,-13.01709 -7.10693,-16.40186c-5.86401,-3.38623 -13.06079,-2.35791 -17.75708,2.04688c-0.00098,0 -15.74316,14.76709 -27.32788,25.63428c-16.93408,-7.15723 -35.03979,-12.08154 -53.948,-14.41846l-10.86133,-35.90381c-1.86548,-6.16309 -7.58496,-10.65186 -14.35547,-10.65186s-12.48975,4.48877 -14.35449,10.65088c-0.00098,0 -6.26172,20.6958 -10.86133,35.90381c-18.90845,2.3374 -37.0144,7.26123 -53.94873,14.41797l-27.32617,-25.63379c-4.69873,-4.40381 -11.89429,-5.43213 -17.75879,-2.0459c-5.86377,3.38477 -8.57178,10.13184 -7.10596,16.40088c-0.00073,0 4.92871,21.06787 8.54834,36.53906c-14.88818,11.28516 -28.17383,24.5708 -39.45898,39.45898l-36.53906,-8.54883c-6.27002,-1.46533 -13.01611,1.24268 -16.40186,7.10693s-2.35791,13.06104 2.04688,17.75684c0,0.00098 14.76611,15.74316 25.63281,27.32813c-7.15674,16.93408 -12.08105,35.04004 -14.41748,53.94775l-35.9043,10.86133c-6.16187,1.86572 -10.65137,7.58496 -10.65137,14.35596s4.4895,12.48975 10.65137,14.354c0,0.00098 20.69629,6.26172 35.9043,10.86182c2.33643,18.9082 7.26074,37.01416 14.41748,53.94824l-25.63379,27.32666c-4.40381,4.69824 -5.43213,11.89404 -2.0459,17.7583s10.13184,8.57178 16.40088,7.10596c0,0.00098 21.06812,-4.92822 36.53955,-8.54785c11.28467,14.8877 24.57031,28.17383 39.4585,39.45898l-8.54883,36.53857c-1.46509,6.27002 1.24268,13.01611 7.10645,16.40234s13.06104,2.35791 17.75781,-2.04688c0.00073,0 15.74243,-14.76709 27.32715,-25.63428c16.93408,7.15723 35.04053,12.08105 53.94849,14.41797l10.86084,35.90381c1.86646,6.16309 7.58521,10.65234 14.3562,10.65234s12.48999,-4.48926 14.35352,-10.65088c0.00098,0 6.26221,-20.69629 10.86279,-35.9043c18.90771,-2.33691 37.01343,-7.26074 53.94751,-14.41797l27.32715,25.63428c4.698,4.40381 11.89404,5.43164 17.75757,2.0459c5.8645,-3.38525 8.57275,-10.13232 7.10596,-16.40137c0.00098,0 -4.92773,-21.06689 -8.54785,-36.53857c14.88818,-11.28516 28.17383,-24.57129 39.45947,-39.45898l36.53906,8.54883c6.26953,1.46484 13.01611,-1.24316 16.40186,-7.10693s2.35815,-13.06104 -2.04712,-17.75684c0,-0.00146 -14.76733,-15.74316 -25.63379,-27.32813c7.15674,-16.93408 12.08081,-35.04004 14.41724,-53.94824l35.90454,-10.86084c6.16284,-1.86621 10.65161,-7.58496 10.65161,-14.35596s-4.48877,-12.49023 -10.65063,-14.354zm-237.84888,157.854c-79.25342,0 -143.50049,-64.24707 -143.50049,-143.5s64.24707,-143.5 143.50049,-143.5s143.49951,64.24707 143.49951,143.5s-64.24683,143.5 -143.49951,143.5z" fill="#b5cdff" id="svg_31"/>
      <path stroke="null" d="m2609.64697,3703.4375c-95.82129,0 -173.50049,77.67871 -173.50049,173.5c0,95.82178 77.6792,173.5 173.50049,173.5s173.49951,-77.67822 173.49951,-173.5c0,-95.82129 -77.67822,-173.5 -173.49951,-173.5zm0,302c-70.96875,0 -128.50049,-57.53125 -128.50049,-128.5s57.53174,-128.5 128.50049,-128.5s128.49951,57.53076 128.49951,128.5s-57.53052,128.5 -128.49951,128.5z" fill="#8b9bbd" id="svg_30"/>
      <path stroke="null" d="m2525.35498,3828.26758c-0.646,1.11279 -1,2.39502 -1.00513,3.72607l0,89.86377c0,2.6792 1.42896,5.15479 3.74976,6.49512l77.80005,44.91992c1.16089,0.66992 2.45532,0.9917 3.75,0.98975l55.30005,-146.57373l-139.59473,0.5791z" fill="#ff9457" id="svg_29"/>
      <path stroke="null" d="m2693.94556,3828.26758l-84.29858,-0.58008l55.30371,115.8208l26.25,-15.15576c2.31982,-1.34033 3.75,-3.81592 3.75,-6.49512l0,-89.86377c-0.00513,-1.33105 -0.35889,-2.61328 -1.00513,-3.72607z" fill="#ff6145" id="svg_28"/>
      <path stroke="null" d="m2609.65039,3827.6875l0,146.58984c1.29517,0 2.59082,-0.33496 3.75,-1.00488l51.55029,-29.76318l0,-98.5l-55.30029,-17.32178z" fill="#ff7e4f" id="svg_27"/>
      <path stroke="null" d="m2691.20166,3825.52539l-77.802,-44.92285c-2.32007,-1.34033 -5.17847,-1.34033 -7.5,0l-38.89966,22.45605l15,49.25977l70.29932,0l41.64526,-24.0498c-0.64673,-1.12109 -1.58276,-2.07422 -2.74292,-2.74316z" fill="#ff9457" id="svg_26"/>
      <path stroke="null" d="m2567.00659,3803.06152l-38.90894,22.46387c-1.15894,0.66895 -2.09619,1.62207 -2.74268,2.74219l84.29468,48.66992l42.64966,-24.62012l-85.29272,-49.25586z" fill="#ffae6b" id="svg_25"/>
     </g>
    </g>
    <text stroke="#000" fill="#000000" stroke-width="0" x="509.3841" y="412.01439" id="svg_22" font-size="10" font-family="Helvetica, Arial, sans-serif" text-anchor="start" xml:space="preserve" transform="matrix(11.3151 0 0 11.4059 -4607.42 -3064.89)">Компания</text>
    <text stroke="#000" fill="#000000" stroke-width="0" stroke-opacity="null" fill-opacity="null" x="456.48974" y="357.37827" id="svg_21" font-size="10" font-family="Helvetica, Arial, sans-serif" text-anchor="start" xml:space="preserve" transform="matrix(44.5056 0 0 8.55495 -18946.7 -1490.69)"/>
    <text stroke="#000" fill="#000000" stroke-width="0" stroke-opacity="null" fill-opacity="null" x="522.03767" y="302.45228" id="svg_20" font-size="10" font-family="Helvetica, Arial, sans-serif" text-anchor="start" xml:space="preserve" transform="matrix(9.56744 0 0 8.5602 -3837.26 -1058.06)">Ваша</text>
    <line stroke="#fe9042" fill="none" x1="1162.16113" y1="1651.13797" x2="1685.16113" y2="1651.13797" id="svg_19" stroke-linejoin="null" stroke-linecap="null" stroke-width="12"/>
   </g>
  </g>
 </g>
</svg>