<svg xmlns="http://www.w3.org/2000/svg" xmlns:xlink="http://www.w3.org/1999/xlink" viewBox="0 0 296.19 204.93"><defs><style>.cls-1{fill:none;}.cls-2{clip-path:url(#clip-path);}.cls-3{fill:#282828;}</style><clipPath id="clip-path" transform="translate(0 0)"><rect class="cls-1" width="296.19" height="204.93"/></clipPath></defs><g id="Слой_2" data-name="Слой 2"><g id="Слой_1-2" data-name="Слой 1"><g class="cls-2"><path class="cls-3" d="M93,12.89a4,4,0,0,1-.73,1.91l-5.13,7.91A2.2,2.2,0,0,1,85,24a2.93,2.93,0,0,1-1.9-.58l-1.47-1.17a40.29,40.29,0,0,0-11.06-5.2A42.21,42.21,0,0,0,58.3,15.24,41.71,41.71,0,0,0,22.41,35.3a38.19,38.19,0,0,0-5.56,20.07v71.49q0,3.08-3.08,3.07H3.22Q0,129.93,0,126.86V6.59Q0,3.52,3.22,3.52h8.5c1.85,0,2.83.83,2.93,2.49l1.76,19.63A51.56,51.56,0,0,1,34.94,7,50.06,50.06,0,0,1,77.2,2.86a49.76,49.76,0,0,1,14.5,8A2.78,2.78,0,0,1,93,12.89" transform="translate(0 0)"/><path class="cls-3" d="M134,6.45V126.86q0,3.08-3.22,3.07H120.12q-3.08,0-3.08-3.07V6.45c0-2,1-2.93,3.08-2.93h10.69c2.15,0,3.22,1,3.22,2.93" transform="translate(0 0)"/><path class="cls-3" d="M284.4,137.48q11.79,8.85,11.79,25.41a34.35,34.35,0,0,1-7.76,22.49q-7.77,9.44-22.2,14.5t-34.05,5.05a193,193,0,0,1-29.89-2.34q-14.94-2.35-25-7.33a3.38,3.38,0,0,1-1.62-1.39,3.7,3.7,0,0,1-.58-2,3.56,3.56,0,0,1,.44-1.61l3.22-7.76a3.51,3.51,0,0,1,3.08-1.9,4.4,4.4,0,0,1,1.31.29,93.64,93.64,0,0,0,22.78,6.52,157.71,157.71,0,0,0,26.3,2.27q22.69,0,35.74-6.81t13-18.83q0-20.51-30.77-20.51H209a48.14,48.14,0,0,1-19.41-3.73,32.35,32.35,0,0,1-13.47-10.4,25.09,25.09,0,0,1-4.91-15.31A29.2,29.2,0,0,1,175.85,98a25.05,25.05,0,0,1,12.09-10.11A52.92,52.92,0,0,1,178.12,72a50.29,50.29,0,0,1-3.51-18.68,54.11,54.11,0,0,1,6.81-27,49.9,49.9,0,0,1,18.68-19A51.93,51.93,0,0,1,226.61.44a55.68,55.68,0,0,1,8.35.88,75.34,75.34,0,0,1,10.55,2.49h38.23a3.84,3.84,0,0,1,2.71,1,3.66,3.66,0,0,1,1.1,2.79v6.59A3.76,3.76,0,0,1,283.74,18l-19,.14a48.22,48.22,0,0,1,10.76,15.17,46.86,46.86,0,0,1,4.18,20,51.53,51.53,0,0,1-7,26.44,50.45,50.45,0,0,1-19.12,18.82,53.89,53.89,0,0,1-27.1,6.89,50.68,50.68,0,0,1-27.83-8.35,15.9,15.9,0,0,0-8.64,5.93,16.44,16.44,0,0,0-3.37,10.18q0,6.6,6.45,11t16,4.39h41.16q22.43,0,34.21,8.87M208.37,21a36,36,0,0,0-13.11,13.4,37.31,37.31,0,0,0-4.83,18.75,36.66,36.66,0,0,0,4.76,18.46A34.93,34.93,0,0,0,208.3,84.81a35.84,35.84,0,0,0,18.31,4.84,37.58,37.58,0,0,0,18.82-4.84,35.78,35.78,0,0,0,18.39-31.49,37.23,37.23,0,0,0-4.91-18.82A35.83,35.83,0,0,0,245.51,21a36.86,36.86,0,0,0-18.75-4.91A35.41,35.41,0,0,0,208.37,21" transform="translate(0 0)"/></g></g></g></svg>