<svg xmlns="http://www.w3.org/2000/svg" xmlns:xlink="http://www.w3.org/1999/xlink" viewBox="0 0 486.46 444.7"><defs><style>.cls-1{fill:none;}.cls-2{clip-path:url(#clip-path);}.cls-3{fill:#fff;}</style><clipPath id="clip-path" transform="translate(0 0)"><rect class="cls-1" width="486.46" height="444.7"/></clipPath></defs><g id="Слой_2" data-name="Слой 2"><g id="Слой_1-2" data-name="Слой 1"><g class="cls-2"><path class="cls-3" d="M243.23,312.5a25,25,0,0,0,0,50c13.1,0,25-11.4,24.4-24.4a24.41,24.41,0,0,0-24.4-25.6" transform="translate(0 0)"/><path class="cls-3" d="M474.63,401.1a85.37,85.37,0,0,0,.2-86.4L318.23,43.5a86.28,86.28,0,0,0-149.8-.1L11.63,314.9a86.61,86.61,0,0,0,75,129.8h312.8c31.3,0,59.4-16.3,75.2-43.6m-34-19.6a47.26,47.26,0,0,1-41.3,23.9H86.53A46.61,46.61,0,0,1,45.73,382a47.32,47.32,0,0,1-.1-47.7L202.43,62.9a47.09,47.09,0,0,1,81.8.1l156.7,271.4a46.69,46.69,0,0,1-.3,47.1" transform="translate(0 0)"/><path class="cls-3" d="M237,137c-11.9,3.4-19.3,14.2-19.3,27.3.6,7.9,1.1,15.9,1.7,23.8,1.7,30.1,3.4,59.6,5.1,89.7a18.32,18.32,0,0,0,18.7,17.6c10.2,0,18.2-7.9,18.7-18.2,0-6.2,0-11.9.6-18.2,1.1-19.3,2.3-38.6,3.4-57.9.6-12.5,1.7-25,2.3-37.5a30.88,30.88,0,0,0-2.3-12.5A25.06,25.06,0,0,0,237,137" transform="translate(0 0)"/></g></g></g></svg>