<svg xmlns="http://www.w3.org/2000/svg" viewBox="0 0 512 405.33"><defs><style>.cls-1{fill:#fff;}</style></defs><g id="Слой_2" data-name="Слой 2"><g id="Capa_1" data-name="Capa 1"><path class="cls-1" d="M511.19,206.62A10.66,10.66,0,0,0,508.86,195L316.86,3a10.67,10.67,0,0,0-15.08,15.09l173.8,173.8H10.67a10.67,10.67,0,1,0,0,21.33H475.58L301.8,387a10.66,10.66,0,1,0,14.82,15.34l.27-.26,192-192A10.91,10.91,0,0,0,511.19,206.62Z"/><path class="cls-1" d="M309.33,405.21A10.67,10.67,0,0,1,301.78,387L486.25,202.55,301.78,18.1A10.66,10.66,0,0,1,316.86,3l192,192a10.65,10.65,0,0,1,0,15.08l-192,192A10.67,10.67,0,0,1,309.33,405.21Z"/><path class="cls-1" d="M501.33,213.21H10.67a10.67,10.67,0,1,1,0-21.33H501.33a10.67,10.67,0,1,1,0,21.33Z"/></g></g></svg>