<svg xmlns="http://www.w3.org/2000/svg" xmlns:xlink="http://www.w3.org/1999/xlink" viewBox="0 0 384 480"><defs><style>.cls-1{fill:none;}.cls-2{clip-path:url(#clip-path);}.cls-3{fill:#fff;}</style><clipPath id="clip-path"><rect class="cls-1" width="384" height="480"/></clipPath></defs><g id="Слой_2" data-name="Слой 2"><g id="Слой_1-2" data-name="Слой 1"><g class="cls-2"><path class="cls-3" d="M285.66,2.34A8,8,0,0,0,280,0H56A56.07,56.07,0,0,0,0,56V424a56.07,56.07,0,0,0,56,56H328a56.07,56.07,0,0,0,56-56V104a8,8,0,0,0-2.34-5.66Zm2.34,25L356.69,96H328a40,40,0,0,1-40-40ZM56,16H272V56a56.07,56.07,0,0,0,56,56h40V336H16V56A40,40,0,0,1,56,16M328,464H56a40,40,0,0,1-40-40V352H368v72a40,40,0,0,1-40,40"/><path class="cls-3" d="M176,432H152V376a8,8,0,0,0-16,0v64a8,8,0,0,0,8,8h32a8,8,0,0,0,0-16"/><path class="cls-3" d="M115.58,368.84a8,8,0,0,0-10.73,3.58L96,390.11l-8.84-17.69a8,8,0,0,0-14.31,7.16L87.06,408,72.85,436.42a8,8,0,1,0,14.25,7.27l.06-.11L96,425.89l8.85,17.69a8,8,0,1,0,14.36-7.05.37.37,0,0,1,0-.11L104.94,408l14.22-28.42a8,8,0,0,0-3.58-10.74"/><path class="cls-3" d="M307.58,368.84a8,8,0,0,0-10.73,3.58L288,390.11l-8.84-17.69a8,8,0,0,0-14.31,7.16L279.06,408l-14.21,28.42a8,8,0,0,0,14.25,7.27l.06-.11L288,425.89l8.85,17.69a8,8,0,1,0,14.36-7.05l0-.11L296.94,408l14.22-28.42a8,8,0,0,0-3.58-10.74"/><path class="cls-3" d="M224,384h16a8,8,0,0,0,0-16H224a24,24,0,0,0,0,48,8,8,0,0,1,0,16H208a8,8,0,0,0,0,16h16a24,24,0,0,0,0-48,8,8,0,0,1,0-16"/><path class="cls-3" d="M64,288H320a8,8,0,0,0,8-8V136a8,8,0,0,0-8-8H136V88a8,8,0,0,0-8-8H64a8,8,0,0,0-8,8V280a8,8,0,0,0,8,8m184-64H200V192h48Zm16-32h48v32H264ZM72,192h48v32H72Zm64,0h48v32H136Zm48,80H136V240h48Zm16-32h48v32H200Zm0-96h48v32H200Zm-16,32H136V144h48Zm-64,0H72V144h48ZM72,240h48v32H72Zm192,0h48v32H264Zm48-64H264V144h48ZM72,96h48v32H72Z"/></g></g></g></svg>